# xmcd
#
# Track frame offsets:
#	150
#	12156
#	22636
#	36359
#
# Disc length: 625 seconds
#
# Revision: 0
# Processed by: cddbd v1.5.2PL0 Copyright (c) Steve Scherf et al.
# Submitted via: EZCDAudioConverter 6.0.5.1
#
DISCID=1f026f04
DTITLE=Pekka Myllykoski ja Jytäjemmarit - Alaska
DYEAR=2011
DGENRE=
TTITLE0=Alaska
TTITLE1=Clapton
TTITLE2=Vain rokkii
TTITLE3=Talon miehen vapaapäivä
EXTD=
EXTT0=
EXTT1=
EXTT2=
EXTT3=
PLAYORDER=
